<svg width="16" height="16" viewBox="0 0 16 16" fill="none" xmlns="http://www.w3.org/2000/svg">
<g clip-path="url(#clip0_681_12468)">
<path d="M10.6229 14.8046C9.84039 15.0293 8.9661 15.1421 8 15.1429C3.42858 15.1429 0.857147 12.5714 0.857147 8C0.857147 3.42858 3.42858 0.857147 8 0.857147C12.5714 0.857147 15.1429 3.42858 15.1429 8C15.1429 9.71429 14.5143 11.2971 13.1429 11.2971C10.8571 11.2971 11.3406 9.09943 11.2971 8" stroke="#161616" stroke-linecap="round" stroke-linejoin="round"/>
<path d="M8.00001 11.2972C10.1097 11.2972 11.2972 10.1097 11.2972 8.00001C11.2972 5.88915 10.1097 4.70287 8.00001 4.70287C5.88915 4.70287 4.70287 5.88915 4.70287 8.00001C4.70287 10.1109 5.88915 11.2972 8.00001 11.2972Z" stroke="#161616" stroke-linecap="round" stroke-linejoin="round"/>
</g>
<defs>
<clipPath id="clip0_681_12468">
<rect width="16" height="16" fill="white"/>
</clipPath>
</defs>
</svg>
