<svg width="34" height="104" viewBox="0 0 34 104" fill="none" xmlns="http://www.w3.org/2000/svg">
<rect x="0.5" y="0.5" width="33" height="103" rx="4.5" stroke="#8A38F5" stroke-dasharray="10 5"/>
<g clip-path="url(#clip0_1067_33304)">
<path d="M17 34.5417H17.008M17 28.5417V31.5417M15.575 23.7587L8.517 35.5417C8.37158 35.7937 8.29466 36.0794 8.2939 36.3704C8.29313 36.6614 8.36855 36.9475 8.51264 37.2003C8.65673 37.4531 8.86449 37.6638 9.11525 37.8114C9.36601 37.959 9.65104 38.0384 9.942 38.0417H24.058C24.3491 38.0387 24.6343 37.9595 24.8852 37.8119C25.1362 37.6644 25.3441 37.4537 25.4882 37.2008C25.6324 36.9479 25.7077 36.6616 25.7068 36.3705C25.7059 36.0794 25.6287 35.7937 25.483 35.5417L18.426 23.7587C18.2776 23.5136 18.0684 23.311 17.8188 23.1703C17.5692 23.0297 17.2875 22.9558 17.001 22.9558C16.7145 22.9558 16.4328 23.0297 16.1832 23.1703C15.9336 23.311 15.7244 23.5136 15.576 23.7587" stroke="black" stroke-miterlimit="10" stroke-linecap="round" stroke-linejoin="round"/>
</g>
<g clip-path="url(#clip1_1067_33304)">
<path d="M17 76.5417H17.008M17 70.5417V73.5417M15.575 65.7587L8.517 77.5417C8.37158 77.7937 8.29466 78.0794 8.2939 78.3704C8.29313 78.6614 8.36855 78.9475 8.51264 79.2003C8.65673 79.4531 8.86449 79.6638 9.11525 79.8114C9.36601 79.959 9.65104 80.0384 9.942 80.0417H24.058C24.3491 80.0387 24.6343 79.9595 24.8852 79.8119C25.1362 79.6644 25.3441 79.4537 25.4882 79.2008C25.6324 78.9479 25.7077 78.6616 25.7068 78.3705C25.7059 78.0794 25.6287 77.7937 25.483 77.5417L18.426 65.7587C18.2776 65.5136 18.0684 65.311 17.8188 65.1703C17.5692 65.0297 17.2875 64.9558 17.001 64.9558C16.7145 64.9558 16.4328 65.0297 16.1832 65.1703C15.9336 65.311 15.7244 65.5136 15.576 65.7587" stroke="#FF8B06" stroke-miterlimit="10" stroke-linecap="round" stroke-linejoin="round"/>
</g>
<defs>
<clipPath id="clip0_1067_33304">
<rect width="22" height="22" fill="white" transform="translate(4 20)"/>
</clipPath>
<clipPath id="clip1_1067_33304">
<rect width="22" height="22" fill="white" transform="translate(4 62)"/>
</clipPath>
</defs>
</svg>
