<svg width="16" height="16" viewBox="0 0 16 16" fill="none" xmlns="http://www.w3.org/2000/svg">
<path d="M2.16666 6.16666H13.8333M4.90732 3.16666V1.83333M11.074 3.16666V1.83333M11.5 3.16666H4.49999C3.88115 3.16666 3.28766 3.41249 2.85007 3.85008C2.41249 4.28766 2.16666 4.88116 2.16666 5.49999V11.8333C2.16666 12.4522 2.41249 13.0457 2.85007 13.4832C3.28766 13.9208 3.88115 14.1667 4.49999 14.1667H11.5C12.1188 14.1667 12.7123 13.9208 13.1499 13.4832C13.5875 13.0457 13.8333 12.4522 13.8333 11.8333V5.49999C13.8333 4.88116 13.5875 4.28766 13.1499 3.85008C12.7123 3.41249 12.1188 3.16666 11.5 3.16666Z" stroke="#161616" stroke-width="0.6" stroke-linecap="round" stroke-linejoin="round"/>
</svg>
