<svg width="16" height="16" viewBox="0 0 16 16" fill="none" xmlns="http://www.w3.org/2000/svg">
<g clip-path="url(#clip0_681_12460)">
<path d="M3.45992 8.14037L11.4432 3.66972M10.3256 14.8463H10.4852C11.12 9.98078 12.522 5.24659 14.6391 0.820003L14.8026 0.476401L14.6365 0.310349L14.2929 0.473847C9.86636 2.59092 5.13217 3.99294 0.266602 4.62772V4.78739L3.45992 7.98071V12.9304H3.61959L4.75258 11.851C5.19896 11.4261 5.69495 11.0567 6.22981 10.7506L10.3256 14.8463Z" stroke="#161616"/>
<path d="M12 7.99L13.99 6L14.0406 6.05057L14.084 6.11571C14.2952 6.43266 14.5671 6.70465 14.884 6.916L14.9497 6.95971L15 7.01029L13.0103 9L15 10.99L14.9494 11.0403L14.8843 11.084C14.5673 11.2952 14.2954 11.5671 14.084 11.884L14.0403 11.9497L13.99 12L12 10.0103L10.0103 12L9.95971 11.9494L9.916 11.8843C9.70476 11.5673 9.43287 11.2954 9.116 11.084L9.05029 11.0403L9 10.99L10.99 9L9 7.01029L9.05057 6.95971L9.116 6.916C9.43284 6.70473 9.70473 6.43284 9.916 6.116L9.95971 6.05029L10.0103 6L12 7.99Z" fill="#161616" stroke="black" stroke-width="0.5"/>
</g>
<defs>
<clipPath id="clip0_681_12460">
<rect width="16" height="16" fill="white"/>
</clipPath>
</defs>
</svg>
