<svg width="16" height="16" viewBox="0 0 16 16" fill="none" xmlns="http://www.w3.org/2000/svg">
<g clip-path="url(#clip0_681_12461)">
<path d="M7.77525 3.3437L12.2459 11.327M1.06927 10.2093V10.369C5.93484 11.0038 10.669 12.4058 15.0956 14.5229L15.4392 14.6864L15.6053 14.5203L15.4418 14.1767C13.3247 9.75013 11.9227 5.01594 11.2879 0.150375H11.1282L7.93491 3.3437H2.98526V3.50336L4.06461 4.63635C4.48947 5.08273 4.85894 5.57872 5.16502 6.11358L1.06927 10.2093Z" stroke="#161616"/>
<path d="M7 10.99L8.99 9L9.04057 9.05057L9.084 9.11571C9.29524 9.43266 9.56713 9.70465 9.884 9.916L9.94971 9.95971L10 10.0103L8.01029 12L10 13.99L9.94943 14.0403L9.88429 14.084C9.56734 14.2952 9.29535 14.5671 9.084 14.884L9.04029 14.9497L8.99 15L7 13.0103L5.01029 15L4.95971 14.9494L4.916 14.8843C4.70476 14.5673 4.43287 14.2954 4.116 14.084L4.05029 14.0403L4 13.99L5.99 12L4 10.0103L4.05057 9.95971L4.116 9.916C4.43284 9.70473 4.70473 9.43284 4.916 9.116L4.95971 9.05029L5.01029 9L7 10.99Z" fill="#161616" stroke="#161616" stroke-width="0.5"/>
</g>
<defs>
<clipPath id="clip0_681_12461">
<rect width="16" height="16" fill="white"/>
</clipPath>
</defs>
</svg>
