<svg width="16" height="16" viewBox="0 0 16 16" fill="none" xmlns="http://www.w3.org/2000/svg">
<path d="M8.07031 10C7.9974 10.1562 7.94271 10.3177 7.90625 10.4844C7.86979 10.651 7.83594 10.8229 7.80469 11H3V10H8.07031ZM3 13V12H7.78906C7.8151 12.1719 7.85156 12.3411 7.89844 12.5078C7.94531 12.6745 8.00521 12.8385 8.07812 13H3ZM2 15H12.5391L13.5312 16H1V0H9.71094L14 4.28906V8.72656C13.849 8.59115 13.6901 8.46875 13.5234 8.35938C13.3568 8.25 13.1823 8.15365 13 8.07031V5H9V1H2V15ZM10 1.71094V4H12.2891L10 1.71094ZM10.1875 8C9.61979 8.21354 9.13281 8.54688 8.72656 9H3V8H10.1875ZM3 4H8V5H3V4ZM12 6V7H3V6H12ZM16 15.5C16 15.6354 15.9505 15.7526 15.8516 15.8516C15.7526 15.9505 15.6354 16 15.5 16C15.3646 16 15.2474 15.9505 15.1484 15.8516L12.875 13.5859C12.6719 13.7214 12.4531 13.8229 12.2188 13.8906C11.9844 13.9583 11.7448 13.9948 11.5 14C11.1562 14 10.8333 13.9349 10.5312 13.8047C10.2292 13.6745 9.96354 13.4974 9.73438 13.2734C9.50521 13.0495 9.32552 12.7839 9.19531 12.4766C9.0651 12.1693 9 11.8438 9 11.5C9 11.1562 9.0651 10.8333 9.19531 10.5312C9.32552 10.2292 9.5026 9.96615 9.72656 9.74219C9.95052 9.51823 10.2161 9.33854 10.5234 9.20312C10.8307 9.06771 11.1562 9 11.5 9C11.8438 9 12.1667 9.0651 12.4688 9.19531C12.7708 9.32552 13.0339 9.50521 13.2578 9.73438C13.4818 9.96354 13.6615 10.2292 13.7969 10.5312C13.9323 10.8333 14 11.1562 14 11.5C14 11.7448 13.9661 11.9844 13.8984 12.2188C13.8307 12.4531 13.7266 12.6719 13.5859 12.875L15.8516 15.1484C15.9505 15.2474 16 15.3646 16 15.5ZM10 11.5C10 11.7083 10.0391 11.9036 10.1172 12.0859C10.1953 12.2682 10.3021 12.4271 10.4375 12.5625C10.5729 12.6979 10.7318 12.8047 10.9141 12.8828C11.0964 12.9609 11.2917 13 11.5 13C11.7083 13 11.9036 12.9609 12.0859 12.8828C12.2682 12.8047 12.4271 12.6979 12.5625 12.5625C12.6979 12.4271 12.8047 12.2682 12.8828 12.0859C12.9609 11.9036 13 11.7083 13 11.5C13 11.2917 12.9609 11.0964 12.8828 10.9141C12.8047 10.7318 12.6979 10.5729 12.5625 10.4375C12.4271 10.3021 12.2682 10.1953 12.0859 10.1172C11.9036 10.0391 11.7083 10 11.5 10C11.2917 10 11.0964 10.0391 10.9141 10.1172C10.7318 10.1953 10.5729 10.3021 10.4375 10.4375C10.3021 10.5729 10.1953 10.7318 10.1172 10.9141C10.0391 11.0964 10 11.2917 10 11.5Z" fill="#161616"/>
</svg>
