<svg width="23" height="26" viewBox="0 0 23 26" fill="none" xmlns="http://www.w3.org/2000/svg">
<path d="M2.125 19.9789V6.021M20.825 12.9999V19.9789" stroke="#161616" stroke-linecap="round"/>
<path d="M11.475 10.6737C16.6385 10.6737 20.825 8.59162 20.825 6.02104C20.825 3.45046 16.6385 1.36841 11.475 1.36841C6.31146 1.36841 2.125 3.45046 2.125 6.02104C2.125 8.59162 6.31146 10.6737 11.475 10.6737Z" stroke="#161616"/>
<path d="M20.825 13C20.825 15.5706 16.6385 17.6526 11.475 17.6526C6.31146 17.6526 2.125 15.5706 2.125 13" stroke="#161616" stroke-linecap="round"/>
<path d="M20.825 19.979C20.825 22.5496 16.6385 24.6316 11.475 24.6316C6.31146 24.6316 2.125 22.5496 2.125 19.979" stroke="#161616"/>
</svg>
