<svg width="14" height="16" viewBox="0 0 14 16" fill="none" xmlns="http://www.w3.org/2000/svg">
<path d="M3.99061 14C3.64971 14 3.35954 13.8803 3.1201 13.6408C2.88066 13.4014 2.76094 13.1115 2.76094 12.7711V3.34686H2V2.58592H5.04375V2H9.60938V2.58592H12.6531V3.34686H11.8922V12.7711C11.8922 13.1211 11.775 13.4136 11.5406 13.6484C11.3063 13.8833 11.0136 14.0005 10.6625 14H3.99061ZM11.1313 3.34686H3.52188V12.7711C3.52188 12.9075 3.56576 13.0197 3.65352 13.1074C3.74128 13.1952 3.85365 13.2391 3.99061 13.2391H10.6633C10.78 13.2391 10.8873 13.1904 10.9852 13.093C11.0831 12.9956 11.1318 12.888 11.1313 12.7703V3.34686ZM5.65859 11.7172H6.41953V4.86874H5.65859V11.7172ZM8.23361 11.7172H8.99455V4.86874H8.23361V11.7172Z" fill="#161616"/>
</svg>
