<svg width="16" height="16" viewBox="0 0 16 16" fill="none" xmlns="http://www.w3.org/2000/svg">
<path d="M8 11.066L4.96657 8.03343L5.57343 7.41629L7.57143 9.41429V2H8.42857V9.41429L10.4257 7.41714L11.0334 8.03343L8 11.066ZM3.38514 14C2.99029 14 2.66086 13.868 2.39686 13.604C2.13286 13.34 2.00057 13.0103 2 12.6149V10.538H2.85714V12.6149C2.85714 12.7469 2.912 12.868 3.02171 12.9783C3.13143 13.0886 3.25229 13.1434 3.38429 13.1429H12.6157C12.7471 13.1429 12.868 13.088 12.9783 12.9783C13.0886 12.8686 13.1434 12.7474 13.1429 12.6149V10.538H14V12.6149C14 13.0097 13.868 13.3391 13.604 13.6031C13.34 13.8671 13.0103 13.9994 12.6149 14H3.38514Z" fill="#161616"/>
</svg>
