<svg width="16" height="17" viewBox="0 0 16 17" fill="none" xmlns="http://www.w3.org/2000/svg">
<path d="M14.3333 6.24699V12.9137M3.66667 6.24699V12.9137M1.66667 6.24699V12.9137M12.3333 6.24699V12.9137M1.33333 14.247H14.6667M0 15.9137H16M8 7.58032H7.33333C7.15652 7.58032 6.98695 7.65056 6.86193 7.77558C6.7369 7.90061 6.66667 8.07018 6.66667 8.24699V8.49699C6.66667 8.64124 6.71345 8.78159 6.8 8.89699C6.88655 9.01239 7.00819 9.0966 7.14667 9.13699L8.85333 9.63499C8.99181 9.67538 9.11345 9.75959 9.2 9.87499C9.28655 9.99039 9.33333 10.1307 9.33333 10.275V10.9137C9.33333 11.0905 9.2631 11.26 9.13807 11.3851C9.01305 11.5101 8.84348 11.5803 8.66667 11.5803H8M8 7.58032H8.66667C8.84348 7.58032 9.01305 7.65056 9.13807 7.77558C9.2631 7.90061 9.33333 8.07018 9.33333 8.24699V8.58032M8 7.58032V6.24699M8 11.5803H7.33333C7.15652 11.5803 6.98695 11.5101 6.86193 11.3851C6.7369 11.26 6.66667 11.0905 6.66667 10.9137V10.5803M8 11.5803V12.9137M15.6667 4.41366V4.91366H0.333333V4.41366C3.66667 3.24699 5.66667 2.24699 7.83333 0.580322H8.16667C10.3333 2.24699 12.3333 3.24699 15.6667 4.41366Z" stroke="#161616"/>
</svg>
