<svg width="15" height="16" viewBox="0 0 15 16" fill="none" xmlns="http://www.w3.org/2000/svg">
<path d="M4.49061 14C4.14971 14 3.85954 13.8803 3.6201 13.6408C3.38066 13.4014 3.26094 13.1115 3.26094 12.7711V3.34686H2.5V2.58592H5.54375V2H10.1094V2.58592H13.1531V3.34686H12.3922V12.7711C12.3922 13.1211 12.275 13.4136 12.0406 13.6484C11.8063 13.8833 11.5136 14.0005 11.1625 14H4.49061ZM11.6313 3.34686H4.02188V12.7711C4.02188 12.9075 4.06576 13.0197 4.15352 13.1074C4.24128 13.1952 4.35365 13.2391 4.49061 13.2391H11.1633C11.28 13.2391 11.3873 13.1904 11.4852 13.093C11.5831 12.9956 11.6318 12.888 11.6313 12.7703V3.34686ZM6.15859 11.7172H6.91953V4.86874H6.15859V11.7172ZM8.73361 11.7172H9.49455V4.86874H8.73361V11.7172Z" fill="#161616"/>
</svg>
