<svg width="16" height="16" viewBox="0 0 16 16" fill="none" xmlns="http://www.w3.org/2000/svg">
<path d="M2.49885 10.7723H4.54142L3.932 13.7991C3.9186 13.8698 3.91191 13.9415 3.912 14.0134C3.912 14.3414 4.13942 14.5223 4.45428 14.5223C4.77571 14.5223 5.01 14.348 5.07714 14.02L5.73314 10.7723H8.90057L8.29142 13.7991C8.27142 13.866 8.26485 13.9466 8.26485 14.0134C8.26485 14.3414 8.49257 14.5223 8.814 14.5223C9.13542 14.5223 9.36971 14.348 9.43685 14.02L10.0857 10.7723H12.4763C12.8446 10.7723 13.0991 10.5046 13.0991 10.1428C13.0991 9.84828 12.8983 9.60714 12.5969 9.60714H10.3266L11.0371 6.07142H13.3809C13.7494 6.07142 14.0037 5.80371 14.0037 5.44199C14.0037 5.14742 13.8029 4.90628 13.5014 4.90628H11.2714L11.8206 2.20771C11.8271 2.16742 11.8406 2.08028 11.8406 1.99342C11.8406 1.66514 11.6063 1.47771 11.2849 1.47771C10.91 1.47771 10.7426 1.68514 10.6754 1.99999L10.0863 4.90628H6.91857L7.46771 2.20771C7.47428 2.16742 7.48771 2.08028 7.48771 1.99342C7.48771 1.66514 7.24657 1.47771 6.93199 1.47771C6.55028 1.47771 6.376 1.68514 6.31571 1.99999L5.72657 4.90628H3.53028C3.16171 4.90628 2.90742 5.18742 2.90742 5.55571C2.90742 5.85714 3.10828 6.07142 3.40971 6.07142H5.49228L4.78228 9.60714H2.61942C2.25085 9.60714 1.99657 9.88828 1.99657 10.2566C1.99657 10.558 2.19742 10.7723 2.49885 10.7723ZM5.96742 9.60714L6.68428 6.07142H9.85142L9.13485 9.60714H5.96742Z" fill="#161616"/>
</svg>
