<svg width="16" height="16" viewBox="0 0 16 16" fill="none" xmlns="http://www.w3.org/2000/svg">
<g clip-path="url(#clip0_1342_12041)">
<path d="M7.99823 14.9997C9.49351 14.9997 10.7057 11.8672 10.7057 8.00315C10.7057 4.13909 9.49351 1.00665 7.99823 1.00665C6.50295 1.00665 5.29079 4.13909 5.29079 8.00315C5.29079 11.8672 6.50295 14.9997 7.99823 14.9997Z" stroke="#161616" stroke-width="0.5"/>
<path d="M7.99823 14.9962C11.8633 14.9962 14.9965 11.8629 14.9965 7.99791C14.9965 4.13289 11.8633 0.999664 7.99823 0.999664C4.1332 0.999664 0.999985 4.13289 0.999985 7.99791C0.999985 11.8629 4.1332 14.9962 7.99823 14.9962Z" stroke="#161616" stroke-width="0.5"/>
<path d="M0.999985 7.99356L14.9965 8.00231" stroke="#161616" stroke-width="0.5" stroke-linecap="round" stroke-linejoin="round"/>
</g>
<defs>
<clipPath id="clip0_1342_12041">
<rect width="16" height="16" fill="white"/>
</clipPath>
</defs>
</svg>
