<svg width="16" height="16" viewBox="0 0 16 16" fill="none" xmlns="http://www.w3.org/2000/svg">
<path d="M3.74401 13.3333C3.43689 13.3333 3.18067 13.2307 2.97534 13.0253C2.77 12.82 2.66712 12.5635 2.66667 12.256V3.74399C2.66667 3.43688 2.76956 3.18066 2.97534 2.97532C3.18112 2.76999 3.43734 2.6671 3.74401 2.66666H8.01267V3.33332H3.74401C3.64134 3.33332 3.54712 3.37599 3.46134 3.46132C3.37556 3.54666 3.33289 3.64088 3.33334 3.74399V12.2567C3.33334 12.3589 3.376 12.4529 3.46134 12.5387C3.54667 12.6244 3.64067 12.6671 3.74334 12.6667H8.01267V13.3333H3.74401ZM10.9747 10.3593L10.5067 9.87932L12.0527 8.33332H6.128V7.66666H12.0527L10.506 6.11999L10.974 5.64132L13.3333 7.99999L10.9747 10.3593Z" fill="#161616"/>
</svg>
