<svg width="22" height="22" viewBox="0 0 22 22" fill="none" xmlns="http://www.w3.org/2000/svg">
<g clip-path="url(#clip0_1055_24523)">
<path d="M19.8666 17.0072C19.2773 16.4819 18.7614 15.8796 18.3327 15.2167C17.8643 14.3017 17.5838 13.3023 17.5077 12.2772V9.25833C17.5118 7.64842 16.9278 6.09245 15.8655 4.88276C14.8032 3.67306 13.3358 2.89291 11.7388 2.68888V1.90055C11.7388 1.68418 11.6529 1.47667 11.4999 1.32367C11.3469 1.17067 11.1394 1.08472 10.923 1.08472C10.7066 1.08472 10.4991 1.17067 10.3461 1.32367C10.1931 1.47667 10.1072 1.68418 10.1072 1.90055V2.70111C8.52455 2.91984 7.07482 3.70471 6.02649 4.91034C4.97817 6.11597 4.40228 7.66067 4.4055 9.25833V12.2772C4.32945 13.3023 4.04894 14.3017 3.5805 15.2167C3.15938 15.8781 2.65173 16.4803 2.07106 17.0072C2.00587 17.0645 1.95363 17.135 1.9178 17.214C1.88198 17.293 1.86339 17.3788 1.86328 17.4656V18.2967C1.86328 18.4587 1.92767 18.6142 2.04227 18.7288C2.15688 18.8434 2.31232 18.9078 2.47439 18.9078H19.4633C19.6254 18.9078 19.7808 18.8434 19.8954 18.7288C20.01 18.6142 20.0744 18.4587 20.0744 18.2967V17.4656C20.0743 17.3788 20.0557 17.293 20.0199 17.214C19.984 17.135 19.9318 17.0645 19.8666 17.0072ZM3.13439 17.6856C3.70285 17.1362 4.20345 16.5207 4.6255 15.8522C5.21571 14.7473 5.5597 13.5277 5.63384 12.2772V9.25833C5.6096 8.54213 5.72973 7.82837 5.98709 7.15957C6.24444 6.49076 6.63374 5.88059 7.13182 5.36537C7.6299 4.85015 8.22656 4.44043 8.88628 4.16061C9.546 3.88078 10.2553 3.73658 10.9719 3.73658C11.6885 3.73658 12.3978 3.88078 13.0575 4.16061C13.7172 4.44043 14.3139 4.85015 14.812 5.36537C15.31 5.88059 15.6993 6.49076 15.9567 7.15957C16.214 7.82837 16.3342 8.54213 16.3099 9.25833V12.2772C16.3841 13.5277 16.7281 14.7473 17.3183 15.8522C17.7403 16.5207 18.2409 17.1362 18.8094 17.6856H3.13439Z" fill="black"/>
<path d="M10.9991 20.949C11.3841 20.9401 11.7535 20.7954 12.042 20.5404C12.3306 20.2854 12.5196 19.9366 12.5758 19.5557H9.36133C9.41906 19.947 9.61697 20.304 9.91824 20.5603C10.2195 20.8166 10.6036 20.9547 10.9991 20.949Z" fill="black"/>
</g>
<defs>
<clipPath id="clip0_1055_24523">
<rect width="22" height="22" fill="white"/>
</clipPath>
</defs>
</svg>
