<svg width="20" height="23" viewBox="0 0 20 23" fill="none" xmlns="http://www.w3.org/2000/svg">
<path d="M2.6668 10.0333V9.3H1.93346V10.0333H2.6668ZM8.53346 10.0333V9.3H7.80013V10.0333H8.53346ZM8.53346 15.9H7.80013V16.6333H8.53346V15.9ZM18.8001 5.63333H19.5335V5.32973L19.3193 5.11413L18.8001 5.63333ZM14.4001 1.23333L14.9193 0.714133L14.7037 0.5H14.4001V1.23333ZM2.6668 10.7667H4.13346V9.3H2.6668V10.7667ZM3.40013 16.6333V12.9667H1.93346V16.6333H3.40013ZM3.40013 12.9667V10.0333H1.93346V12.9667H3.40013ZM4.13346 12.2333H2.6668V13.7H4.13346V12.2333ZM4.8668 11.5C4.8668 11.6945 4.78954 11.881 4.65201 12.0185C4.51448 12.1561 4.32796 12.2333 4.13346 12.2333V13.7C4.71694 13.7 5.27652 13.4682 5.6891 13.0556C6.10168 12.6431 6.33346 12.0835 6.33346 11.5H4.8668ZM4.13346 10.7667C4.32796 10.7667 4.51448 10.8439 4.65201 10.9815C4.78954 11.119 4.8668 11.3055 4.8668 11.5H6.33346C6.33346 10.9165 6.10168 10.3569 5.6891 9.94436C5.27652 9.53179 4.71694 9.3 4.13346 9.3V10.7667ZM7.80013 10.0333V15.9H9.2668V10.0333H7.80013ZM8.53346 16.6333H10.0001V15.1667H8.53346V16.6333ZM12.2001 14.4333V11.5H10.7335V14.4333H12.2001ZM10.0001 9.3H8.53346V10.7667H10.0001V9.3ZM12.2001 11.5C12.2001 10.9165 11.9683 10.3569 11.5558 9.94436C11.1432 9.53179 10.5836 9.3 10.0001 9.3V10.7667C10.1946 10.7667 10.3811 10.8439 10.5187 10.9815C10.6562 11.119 10.7335 11.3055 10.7335 11.5H12.2001ZM10.0001 16.6333C10.5836 16.6333 11.1432 16.4015 11.5558 15.989C11.9683 15.5764 12.2001 15.0168 12.2001 14.4333H10.7335C10.7335 14.6278 10.6562 14.8144 10.5187 14.9519C10.3811 15.0894 10.1946 15.1667 10.0001 15.1667V16.6333ZM13.6668 9.3V16.6333H15.1335V9.3H13.6668ZM14.4001 10.7667H18.0668V9.3H14.4001V10.7667ZM14.4001 13.7H16.6001V12.2333H14.4001V13.7ZM1.93346 7.83333V2.7H0.466797V7.83333H1.93346ZM18.0668 5.63333V7.83333H19.5335V5.63333H18.0668ZM2.6668 1.96667H14.4001V0.5H2.6668V1.96667ZM13.8809 1.75253L18.2809 6.15253L19.3193 5.11413L14.9193 0.714133L13.8809 1.75253ZM1.93346 2.7C1.93346 2.50551 2.01073 2.31898 2.14825 2.18146C2.28578 2.04393 2.4723 1.96667 2.6668 1.96667V0.5C2.08332 0.5 1.52374 0.731785 1.11116 1.14437C0.698582 1.55695 0.466797 2.11652 0.466797 2.7H1.93346ZM0.466797 18.1V20.3H1.93346V18.1H0.466797ZM2.6668 22.5H17.3335V21.0333H2.6668V22.5ZM19.5335 20.3V18.1H18.0668V20.3H19.5335ZM17.3335 22.5C17.9169 22.5 18.4765 22.2682 18.8891 21.8556C19.3017 21.4431 19.5335 20.8835 19.5335 20.3H18.0668C18.0668 20.4945 17.9895 20.681 17.852 20.8185C17.7145 20.9561 17.528 21.0333 17.3335 21.0333V22.5ZM0.466797 20.3C0.466797 20.8835 0.698582 21.4431 1.11116 21.8556C1.52374 22.2682 2.08332 22.5 2.6668 22.5V21.0333C2.4723 21.0333 2.28578 20.9561 2.14825 20.8185C2.01073 20.681 1.93346 20.4945 1.93346 20.3H0.466797Z" fill="black"/>
</svg>
