<svg width="16" height="16" viewBox="0 0 16 16" fill="none" xmlns="http://www.w3.org/2000/svg">
<g clip-path="url(#clip0_681_12470)">
<path d="M2.66666 12C2.66666 11.2928 2.94761 10.6145 3.4477 10.1144C3.9478 9.61428 4.62608 9.33333 5.33332 9.33333H10.6667C11.3739 9.33333 12.0522 9.61428 12.5523 10.1144C13.0524 10.6145 13.3333 11.2928 13.3333 12C13.3333 12.3536 13.1928 12.6928 12.9428 12.9428C12.6927 13.1929 12.3536 13.3333 12 13.3333H3.99999C3.64637 13.3333 3.30723 13.1929 3.05718 12.9428C2.80713 12.6928 2.66666 12.3536 2.66666 12Z" stroke="#161616" stroke-width="0.7" stroke-linejoin="round"/>
<path d="M8 6.66666C9.10457 6.66666 10 5.77123 10 4.66666C10 3.56209 9.10457 2.66666 8 2.66666C6.89543 2.66666 6 3.56209 6 4.66666C6 5.77123 6.89543 6.66666 8 6.66666Z" stroke="#161616" stroke-width="0.7"/>
</g>
<defs>
<clipPath id="clip0_681_12470">
<rect width="16" height="16" fill="white"/>
</clipPath>
</defs>
</svg>
