<svg width="16" height="16" viewBox="0 0 16 16" fill="none" xmlns="http://www.w3.org/2000/svg">
<path d="M14.6264 9.67533L9.67627 14.6236C9.54918 14.749 9.40627 14.8431 9.24754 14.9059C9.08882 14.9686 8.93061 15 8.77292 15C8.61523 15 8.45831 14.9686 8.30218 14.9059C8.14604 14.8431 8.00443 14.749 7.87734 14.6236L1.37104 8.13222C1.2481 8.0197 1.15525 7.88541 1.09248 7.72933C1.02972 7.57378 0.998337 7.40993 0.998337 7.23778V2.27089C0.998337 1.92141 1.12075 1.62222 1.36559 1.37333C1.61043 1.12444 1.9118 1 2.26972 1H7.23854C7.40661 1 7.56974 1.03396 7.72795 1.10189C7.88616 1.16981 8.02285 1.26159 8.138 1.37722L14.6264 7.867C14.7561 7.99404 14.8505 8.13689 14.9096 8.29556C14.9688 8.45422 14.9983 8.61419 14.9983 8.77544C14.9983 8.9367 14.9688 9.09485 14.9096 9.24989C14.8505 9.40493 14.7561 9.54674 14.6264 9.67533ZM9.1215 14.0729L14.0709 9.12467C14.1705 9.02511 14.2203 8.90793 14.2203 8.77311C14.2203 8.6383 14.1705 8.52111 14.0709 8.42156L7.42917 1.79333H2.26972C2.12967 1.79333 2.01243 1.83819 1.91803 1.92789C1.8231 2.01759 1.77564 2.13219 1.77564 2.27167V7.23389C1.77564 7.29404 1.78575 7.35393 1.80598 7.41356C1.8257 7.4737 1.86045 7.52867 1.91025 7.57844L8.41811 14.0729C8.5177 14.1724 8.63468 14.2222 8.76902 14.2222C8.90389 14.2222 9.02138 14.1724 9.1215 14.0729ZM3.75974 4.54511C3.97813 4.54511 4.16331 4.46941 4.31529 4.318C4.46728 4.16659 4.54353 3.98304 4.54405 3.76733C4.54405 3.54696 4.46832 3.35978 4.31685 3.20578C4.16538 3.05178 3.98176 2.97452 3.76597 2.974C3.54551 2.974 3.35825 3.05048 3.20419 3.20344C3.05013 3.35641 2.9731 3.5423 2.9731 3.76111C2.9731 3.97993 3.04962 4.16504 3.20264 4.31644C3.35566 4.46785 3.54136 4.54407 3.75974 4.54511Z" fill="#161616"/>
</svg>
