<svg width="16" height="16" viewBox="0 0 16 16" fill="none" xmlns="http://www.w3.org/2000/svg">
<path d="M8 4.66666V5.99999M7.99867 1.33333C5.99333 1.33333 4.69333 2.67933 3.156 3.16999C2.53067 3.36999 2.218 3.46933 2.09133 3.60999C1.96467 3.74999 1.928 3.95599 1.854 4.36666C1.06067 8.76399 2.794 12.8293 6.92733 14.412C7.37067 14.582 7.59267 14.6667 8.00067 14.6667C8.40867 14.6667 8.63133 14.5813 9.07533 14.4113C13.208 12.8293 14.9393 8.76399 14.146 4.36666C14.072 3.95599 14.0347 3.74999 13.908 3.60933C13.7813 3.46866 13.4693 3.36933 12.844 3.16999C11.306 2.67933 10.004 1.33333 7.99867 1.33333Z" stroke="#161616" stroke-width="0.7" stroke-linecap="round" stroke-linejoin="round"/>
</svg>
