<svg width="16" height="16" viewBox="0 0 16 16" fill="none" xmlns="http://www.w3.org/2000/svg">
<path d="M7 1L6.87934 1.362C6.76119 1.71633 6.60093 2.0552 6.402 2.37133C6.13511 2.7921 5.77032 3.14201 5.33879 3.39115C4.90727 3.64028 4.42185 3.78125 3.924 3.802C3.55102 3.81614 3.17768 3.78547 2.812 3.71067L2.438 3.634L1.438 5.366L1.69134 5.652C1.94067 5.93333 2.15334 6.24133 2.32667 6.56933C2.55762 7.01085 2.67825 7.50172 2.67825 8C2.67825 8.49828 2.55762 8.98915 2.32667 9.43067C2.15234 9.76075 1.93904 10.0687 1.69134 10.348L1.438 10.634L2.438 12.366L2.81134 12.2893C3.17745 12.2144 3.55124 12.1838 3.92467 12.198C4.4224 12.2189 4.90769 12.3599 5.33909 12.609C5.77048 12.8581 6.13517 13.208 6.402 13.6287C6.59934 13.942 6.76 14.2813 6.87934 14.638L7 15H9L9.12067 14.638C9.24067 14.2798 9.39978 13.9433 9.598 13.6287C9.8649 13.2079 10.2297 12.858 10.6612 12.6089C11.0927 12.3597 11.5782 12.2188 12.076 12.198C12.449 12.1839 12.8223 12.2145 13.188 12.2893L13.562 12.366L14.562 10.634L14.3087 10.348C14.061 10.0687 13.8477 9.76075 13.6733 9.43067C13.4424 8.98915 13.3218 8.49828 13.3218 8C13.3218 7.50172 13.4424 7.01085 13.6733 6.56933C13.8467 6.24133 14.0593 5.93333 14.3087 5.652L14.562 5.366L13.562 3.634L13.1887 3.71067C12.8226 3.78558 12.4488 3.81624 12.0753 3.802C11.5776 3.78114 11.0923 3.64013 10.6609 3.39099C10.2295 3.14186 9.86483 2.79201 9.598 2.37133C9.39907 2.0552 9.23882 1.71633 9.12067 1.362L9 1H7Z" stroke="#161616" stroke-width="0.7"/>
<path d="M10.3347 8C10.3347 8.61919 10.0887 9.21302 9.65086 9.65085C9.21303 10.0887 8.61919 10.3347 8 10.3347C7.38081 10.3347 6.78698 10.0887 6.34914 9.65085C5.91131 9.21302 5.66534 8.61919 5.66534 8C5.66534 7.3808 5.91131 6.78697 6.34914 6.34914C6.78698 5.9113 7.38081 5.66533 8 5.66533C8.61919 5.66533 9.21303 5.9113 9.65086 6.34914C10.0887 6.78697 10.3347 7.3808 10.3347 8Z" stroke="#161616" stroke-width="0.7"/>
</svg>
