<svg width="25" height="25" viewBox="0 0 25 25" fill="none" xmlns="http://www.w3.org/2000/svg">
<path fill-rule="evenodd" clip-rule="evenodd" d="M12.5 3C11.4389 2.99975 10.4004 3.30645 9.50969 3.8831C8.61897 4.45976 7.91408 5.28176 7.48 6.25C7.41934 6.38727 7.35734 6.52394 7.294 6.66L7.226 6.792C7.19295 6.84632 7.14985 6.89383 7.099 6.932C7.04324 6.96261 6.98214 6.98229 6.919 6.99C6.883 6.997 6.809 7 6.5 7C5.57174 7 4.6815 7.36875 4.02513 8.02513C3.36875 8.6815 3 9.57174 3 10.5C3 11.4283 3.36875 12.3185 4.02513 12.9749C4.6815 13.6313 5.57174 14 6.5 14H7.172L8.172 13H6.5C5.83696 13 5.20107 12.7366 4.73223 12.2678C4.26339 11.7989 4 11.163 4 10.5C4 9.83696 4.26339 9.20107 4.73223 8.73223C5.20107 8.26339 5.83696 8 6.5 8H6.554C6.78 8 6.967 8 7.116 7.97C7.296 7.934 7.474 7.88 7.642 7.77C7.81 7.662 7.932 7.522 8.04 7.372C8.098 7.292 8.15 7.188 8.197 7.089C8.24633 6.983 8.31067 6.84167 8.39 6.665L8.392 6.66C8.74694 5.8673 9.32364 5.19422 10.0526 4.72195C10.7815 4.24968 11.6315 3.99839 12.5 3.99839C13.3685 3.99839 14.2185 4.24968 14.9474 4.72195C15.6764 5.19422 16.2531 5.8673 16.608 6.66L16.61 6.666C16.6893 6.842 16.7537 6.983 16.803 7.089C16.85 7.188 16.902 7.291 16.96 7.372C17.067 7.522 17.19 7.662 17.358 7.771C17.526 7.88 17.704 7.934 17.884 7.971C18.033 8.001 18.22 8.001 18.446 8H18.5C19.163 8 19.7989 8.26339 20.2678 8.73223C20.7366 9.20107 21 9.83696 21 10.5C21 11.163 20.7366 11.7989 20.2678 12.2678C19.7989 12.7366 19.163 13 18.5 13H16.828L17.828 14H18.5C18.9596 14 19.4148 13.9095 19.8394 13.7336C20.264 13.5577 20.6499 13.2999 20.9749 12.9749C21.2999 12.6499 21.5577 12.264 21.7336 11.8394C21.9095 11.4148 22 10.9596 22 10.5C22 10.0404 21.9095 9.58525 21.7336 9.16061C21.5577 8.73597 21.2999 8.35013 20.9749 8.02513C20.6499 7.70012 20.264 7.44231 19.8394 7.26642C19.4148 7.09053 18.9596 7 18.5 7C18.191 7 18.117 6.997 18.082 6.99C18.0188 6.98198 17.9577 6.96196 17.902 6.931C17.8508 6.89293 17.8073 6.84541 17.774 6.791L17.758 6.764L17.706 6.659C17.6427 6.52328 17.5807 6.38694 17.52 6.25C17.0859 5.28176 16.381 4.45976 15.4903 3.8831C14.5996 3.30645 13.5611 2.99975 12.5 3Z" fill="#00B1F2"/>
<path d="M12.5005 12.5L12.1465 12.146L12.5005 11.793L12.8545 12.146L12.5005 12.5ZM13.0005 21.5C13.0005 21.6326 12.9478 21.7598 12.854 21.8535C12.7603 21.9473 12.6331 22 12.5005 22C12.3679 22 12.2407 21.9473 12.1469 21.8535C12.0532 21.7598 12.0005 21.6326 12.0005 21.5H13.0005ZM8.14648 16.146L12.1465 12.146L12.8545 12.854L8.85448 16.854L8.14648 16.146ZM12.8545 12.146L16.8545 16.146L16.1465 16.854L12.1465 12.854L12.8545 12.146ZM13.0005 12.5V21.5H12.0005V12.5H13.0005Z" fill="#00B1F2"/>
</svg>
