<svg width="16" height="16" viewBox="0 0 16 16" fill="none" xmlns="http://www.w3.org/2000/svg">
<path d="M14.1503 9.97134V11.9357C14.1504 12.1084 14.1164 12.2795 14.0503 12.4391C13.9842 12.5988 13.8873 12.7438 13.7652 12.866C13.6431 12.9881 13.498 13.0851 13.3384 13.1512C13.1788 13.2173 13.0078 13.2513 12.835 13.2513H2.81533C2.64257 13.2513 2.47151 13.2173 2.3119 13.1512C2.15229 13.0851 2.00728 12.9881 1.88513 12.866C1.76299 12.7438 1.66611 12.5988 1.60003 12.4391C1.53395 12.2795 1.49996 12.1084 1.5 11.9357V4.06434C1.49996 3.89155 1.53396 3.72045 1.60006 3.5608C1.66616 3.40116 1.76307 3.2561 1.88525 3.13392C2.00743 3.01174 2.15249 2.91484 2.31213 2.84873C2.47178 2.78263 2.64288 2.74863 2.81567 2.74867H12.835C13.0078 2.74867 13.1788 2.78271 13.3384 2.84883C13.498 2.91495 13.6431 3.01187 13.7652 3.13404C13.8873 3.25622 13.9842 3.40126 14.0503 3.56088C14.1164 3.7205 14.1504 3.89158 14.1503 4.06434V6.09701" stroke="#161616" stroke-width="0.5" stroke-linecap="round" stroke-linejoin="round"/>
<path d="M14.098 9.975H10.6417C10.3868 9.97509 10.1344 9.92495 9.89891 9.82746C9.66341 9.72996 9.44944 9.58702 9.26922 9.40679C9.08899 9.22657 8.94605 9.01259 8.84855 8.7771C8.75105 8.54161 8.70092 8.28921 8.701 8.03434C8.70087 7.77943 8.75098 7.527 8.84845 7.29147C8.94593 7.05594 9.08887 6.84193 9.2691 6.66167C9.44933 6.48141 9.66332 6.33843 9.89883 6.24092C10.1343 6.1434 10.3868 6.09325 10.6417 6.09334H14.0983C14.32 6.09334 14.5 6.27334 14.5 6.49534V9.57334C14.5 9.795 14.32 9.975 14.098 9.975Z" stroke="#161616" stroke-width="0.5" stroke-linecap="round" stroke-linejoin="round"/>
<path d="M10.8193 8.95867C11.3173 8.95867 11.721 8.55498 11.721 8.057C11.721 7.55902 11.3173 7.15533 10.8193 7.15533C10.3214 7.15533 9.91766 7.55902 9.91766 8.057C9.91766 8.55498 10.3214 8.95867 10.8193 8.95867Z" stroke="#161616" stroke-width="0.5" stroke-linecap="round" stroke-linejoin="round"/>
</svg>
