<svg width="14" height="13" viewBox="0 0 14 13" fill="none" xmlns="http://www.w3.org/2000/svg">
<path d="M7.45281 9.57577H7.45863M7.45281 5.21214V7.39395M6.41645 1.73359L1.28335 10.303C1.17759 10.4863 1.12165 10.6941 1.1211 10.9058C1.12054 11.1174 1.17539 11.3255 1.28018 11.5093C1.38498 11.6932 1.53607 11.8464 1.71844 11.9537C1.90082 12.0611 2.10811 12.1188 2.31972 12.1212H12.5859C12.7976 12.119 13.005 12.0614 13.1875 11.9541C13.37 11.8468 13.5212 11.6936 13.6261 11.5097C13.7309 11.3257 13.7857 11.1176 13.785 10.9058C13.7844 10.6941 13.7283 10.4863 13.6223 10.303L8.4899 1.73359C8.38195 1.55536 8.22985 1.40798 8.04831 1.30569C7.86677 1.2034 7.66191 1.14966 7.45354 1.14966C7.24516 1.14966 7.04031 1.2034 6.85876 1.30569C6.67722 1.40798 6.52513 1.55536 6.41717 1.73359" stroke="black" stroke-miterlimit="10" stroke-linecap="round" stroke-linejoin="round"/>
</svg>
